<svg width="81" height="81" viewBox="0 0 81 81" fill="none" xmlns="http://www.w3.org/2000/svg">
<g clip-path="url(#clip0)">
<path d="M75.8145 75.961L72.2733 55.2294C71.8917 52.9957 70.3071 51.2013 68.1375 50.5469L58.5862 47.665C58.3884 45.3302 57.4311 43.1274 55.838 41.3839C54.5636 39.9893 52.9608 38.9739 51.194 38.4135C51.4963 38.078 51.7767 37.7436 52.0338 37.4165C54.3052 34.5278 55.5212 31.3452 55.8308 29.1735H56.5677C58.4841 29.1735 60.0433 27.6144 60.0433 25.6978V23.9161C60.0433 22.6371 59.3238 21.4781 58.2418 20.8766V16.5922C58.2418 15.9448 57.7169 15.4199 57.0695 15.4199C56.4221 15.4199 55.8974 15.9446 55.8974 16.5922V21.4019C55.4409 21.4812 54.8962 21.6182 54.339 21.8528C54.2819 21.8736 54.2264 21.8977 54.1739 21.9266C54.048 21.984 53.922 22.0445 53.7965 22.1127V12.6661C53.7965 10.0563 51.6733 7.93311 49.0635 7.93311H45.8279C44.712 7.93311 43.6218 8.32193 42.7578 9.02829L42.4403 9.28782C41.8571 9.76467 41.1211 10.0273 40.3677 10.0273C39.6142 10.0273 38.878 9.76467 38.2949 9.28782L37.9775 9.02829C37.1135 8.32209 36.0233 7.93311 34.9074 7.93311H31.6715C29.0617 7.93311 26.9385 10.0563 26.9385 12.6661V22.1127C26.813 22.0445 26.687 21.984 26.5611 21.9266C26.5086 21.8977 26.4532 21.8736 26.3962 21.8528C25.839 21.6182 25.2941 21.4812 24.8377 21.4019V9.24014C24.8377 5.44443 27.9258 2.35633 31.7215 2.35633H49.0133C52.8092 2.35633 55.8971 5.44443 55.8971 9.24014V11.0828C55.8971 11.7302 56.4219 12.2551 57.0692 12.2551C57.7165 12.2551 58.2415 11.7304 58.2415 11.0828V9.24014C58.2415 4.15178 54.1016 0.0119629 49.0133 0.0119629H31.7215C26.633 0.0119629 22.4934 4.15178 22.4934 9.24014V20.8768C21.4113 21.4782 20.6918 22.6371 20.6918 23.9163V25.6979C20.6918 27.6146 22.251 29.1736 24.1675 29.1736H24.9043C25.2137 31.3454 26.4299 34.5279 28.7013 37.4167C28.9582 37.7434 29.2383 38.0775 29.5404 38.4127C25.4786 39.7029 22.5165 43.3548 22.1489 47.665L12.5973 50.5469C10.4277 51.2013 8.84302 52.9957 8.46155 55.2294L7.0235 63.6483C6.91453 64.2865 7.34353 64.892 7.98157 65.001C8.61945 65.1103 9.22528 64.6811 9.33441 64.0429L10.7725 55.624C11.0032 54.2725 11.9619 53.1872 13.2744 52.7913L22.1086 50.1258V52.4446C20.0837 52.8173 18.3606 54.2083 17.6509 56.1355C17.4626 56.6471 17.3455 57.1827 17.3029 57.7274L16.4491 68.6863C16.3847 69.5118 16.6704 70.3339 17.2324 70.9413C17.7945 71.5488 18.5917 71.8974 19.4195 71.8974H20.881C21.5284 71.8974 22.0533 71.3728 22.0533 70.7252C22.0533 70.0776 21.5284 69.5531 20.881 69.5531H19.4195C19.243 69.5531 19.0732 69.479 18.9533 69.3492C18.8335 69.2198 18.7727 69.0447 18.7865 68.8688L19.6403 57.9097C19.6661 57.5797 19.7369 57.2553 19.851 56.9455C20.3447 55.6049 21.678 54.697 23.1691 54.6865L23.3622 54.6851C23.3712 54.685 23.3802 54.685 23.3891 54.685C24.8382 54.685 26.121 55.5067 26.6621 56.7842C26.8139 57.1424 26.9062 57.521 26.9365 57.9097L27.7906 68.8689C27.8042 69.0446 27.7434 69.2197 27.6236 69.3494C27.5039 69.4788 27.3339 69.5531 27.1574 69.5531H25.6959C25.0485 69.5531 24.5236 70.0778 24.5236 70.7252C24.5236 71.3726 25.0485 71.8974 25.6959 71.8974H27.1574C27.9853 71.8974 28.7826 71.549 29.3445 70.9413C29.9067 70.3335 30.1924 69.5117 30.1279 68.6865L29.2738 57.7274C29.2238 57.0861 29.0714 56.4609 28.8208 55.8694C28.0486 54.0469 26.3974 52.7798 24.4528 52.4369V49.4185L28.4824 48.2027C28.849 48.9748 29.5756 50.6435 31.0147 54.2405C32.4651 57.8698 34.2679 62.5218 35.9969 67.0442C36.0093 67.0822 36.0235 67.1193 36.0394 67.1555C37.1933 70.1747 38.3125 73.1318 39.2698 75.6827C39.4415 76.1401 39.8788 76.4431 40.3673 76.4431C40.8559 76.4431 41.2932 76.1401 41.4649 75.6827C42.422 73.1318 43.5413 70.1747 44.6952 67.1555C44.7113 67.1193 44.7254 67.0821 44.7378 67.0442C46.4655 62.5245 48.2674 57.8755 49.7172 54.2472C51.1582 50.6455 51.8853 48.9755 52.2521 48.2027L56.2817 49.4185V56.3422C53.4897 56.8846 51.3749 59.347 51.3749 62.2953C51.3749 65.6396 54.0957 68.3606 57.4402 68.3606C60.7847 68.3606 63.5056 65.6398 63.5056 62.2953C63.5056 59.3567 61.4046 56.9002 58.6261 56.3472V50.126L67.4604 52.7915C68.7729 53.1874 69.7315 54.2727 69.9624 55.6241L73.5036 76.3557C73.5623 76.6995 73.4709 77.0357 73.2459 77.3022C73.0211 77.5686 72.7051 77.7156 72.3563 77.7156H8.37837C8.02957 77.7156 7.71375 77.5688 7.48878 77.3022C7.26395 77.0357 7.17234 76.6997 7.23112 76.3557L8.39979 69.5138C8.50876 68.8756 8.07975 68.2701 7.44172 68.1612C6.80384 68.0517 6.198 68.4812 6.08888 69.1192L4.92021 75.9611C4.74589 76.9824 5.02902 78.0222 5.69692 78.8141C6.36514 79.6058 7.34244 80.0598 8.37837 80.0598H72.3563C73.3922 80.0598 74.3697 79.6058 75.0378 78.8139C75.7057 78.022 75.9888 76.9822 75.8145 75.961ZM55.9112 23.7901C56.5358 23.6344 57.0372 23.6372 57.0428 23.6373C57.2448 23.64 57.4411 23.5928 57.6156 23.5013C57.6678 23.6312 57.6986 23.7709 57.6986 23.9163V25.6979C57.6986 26.3218 57.1912 26.8292 56.5673 26.8292H55.9112V23.7901ZM24.8235 26.8292H24.1673C23.5435 26.8292 23.036 26.3218 23.036 25.6979V23.9163C23.036 23.7709 23.067 23.6312 23.1191 23.5015C23.2934 23.5929 23.4898 23.6402 23.6919 23.6373C23.7008 23.6389 24.2008 23.6361 24.8235 23.7907V26.8292ZM27.1679 28.1436V25.064C27.5231 25.1704 27.9116 25.1559 28.2703 25.0063C28.8855 24.7496 29.2829 24.1534 29.2829 23.4872V12.6661C29.2829 11.3491 30.3545 10.2775 31.6715 10.2775H34.907C35.4836 10.2775 36.0469 10.4784 36.4933 10.8433L36.8107 11.1028C37.8114 11.9211 39.0745 12.3715 40.3673 12.3715C41.6601 12.3715 42.9232 11.921 43.924 11.1028L44.2414 10.8433C44.6876 10.4784 45.251 10.2775 45.8276 10.2775H49.0632C50.3802 10.2775 51.4518 11.3491 51.4518 12.6661V23.4874C51.4518 24.1534 51.8492 24.7497 52.4644 25.0064C52.6699 25.0921 52.885 25.1337 53.0982 25.1337C53.2572 25.1337 53.415 25.1104 53.5668 25.0651V28.1436C53.5668 29.8551 52.3836 33.1787 50.1907 35.9675C49.4643 36.8914 48.5307 37.8838 47.3811 38.7512C47.3446 38.7756 47.3098 38.802 47.2765 38.8302C45.4956 40.1469 43.2056 41.1556 40.3673 41.1556C37.5291 41.1556 35.2391 40.1469 33.4581 38.83C33.4248 38.802 33.39 38.7756 33.3538 38.7514C32.2042 37.8838 31.2705 36.8914 30.544 35.9675C28.3513 33.1788 27.1679 29.8551 27.1679 28.1436ZM48.0469 47.0823L40.3673 52.8223L32.6878 47.0823C33.4493 46.1144 33.876 44.8719 33.876 43.7631V41.8736C35.6819 42.8448 37.8368 43.5002 40.3673 43.5002C42.8979 43.5002 45.053 42.8448 46.8587 41.8736V43.7631C46.8587 44.8719 47.2854 46.1144 48.0469 47.0823ZM30.7314 45.7739C30.1054 45.5354 29.4114 45.4963 28.7549 45.6744C28.7262 45.6811 28.698 45.6888 28.6707 45.6969L24.6209 46.9189C25.3058 43.551 28.0406 40.8703 31.5316 40.3511V43.7631C31.5316 44.4986 31.2033 45.2589 30.7314 45.7739ZM33.9129 55.1839C33.9107 55.1784 33.9085 55.1729 33.9064 55.1676C33.847 55.0174 33.7884 54.8691 33.7302 54.7226C33.7198 54.6961 33.7093 54.6696 33.6988 54.6434C33.6419 54.5 33.5855 54.3577 33.5298 54.2178C33.5259 54.208 33.522 54.1983 33.5181 54.1883C33.3444 53.7516 33.177 53.3328 33.0159 52.9314C33.0042 52.9023 32.9925 52.8728 32.9807 52.8439C32.9345 52.7288 32.889 52.6154 32.8438 52.5035C32.8272 52.4624 32.8108 52.4217 32.7944 52.3811C32.7506 52.2726 32.7071 52.1647 32.6643 52.0592C32.6515 52.0276 32.639 51.997 32.6263 51.9655C32.5486 51.7738 32.4726 51.587 32.3985 51.4049C32.3785 51.3556 32.358 51.3054 32.3382 51.2568C32.3091 51.1858 32.2808 51.1167 32.2523 51.0472C32.2217 50.9721 32.191 50.8977 32.161 50.8245C32.1498 50.7972 32.138 50.7682 32.1268 50.741C32.1177 50.7192 32.1094 50.699 32.1005 50.6773C31.9651 50.3483 31.8365 50.0383 31.7144 49.7467C31.7134 49.7444 31.7123 49.742 31.7114 49.7397C31.6463 49.5844 31.5827 49.4328 31.5216 49.2883C31.4898 49.2134 31.4586 49.1398 31.4279 49.0675L38.0327 54.0039L35.2729 55.1764C35.268 55.1784 35.263 55.1804 35.2582 55.1826L34.1059 55.6721C34.0406 55.5069 33.9766 55.3449 33.9129 55.1839ZM36.7098 62.3613C36.4783 61.7604 36.245 61.1562 36.0113 60.5525C35.6458 59.6084 35.2967 58.7107 34.9625 57.8555L35.4 57.6696L37.1873 59.7472L36.7098 62.3613ZM40.39 71.8885C40.3564 71.8188 40.3164 71.753 40.2701 71.6917C39.7404 70.2916 39.0681 68.5201 38.3241 66.571L39.4185 60.5791H41.3162L42.4106 66.571C41.6309 68.613 40.9306 70.4594 40.39 71.8885ZM41.7558 58.2349H38.9789L37.6648 56.7074L40.3673 55.5594L43.0699 56.7074L41.7558 58.2349ZM44.7234 60.5525C44.4897 61.1562 44.2564 61.7604 44.0248 62.3613L43.5474 59.7471L45.3347 57.6694L45.7721 57.8553C45.438 58.7105 45.0889 59.6084 44.7234 60.5525ZM49.2133 49.2883C49.1553 49.4253 49.0949 49.5689 49.0335 49.7156C49.0255 49.7347 49.0174 49.7539 49.0094 49.7731C48.9486 49.9185 48.8867 50.0671 48.8226 50.2217C48.8183 50.2318 48.814 50.2426 48.8097 50.2529C48.7544 50.3863 48.6976 50.5239 48.6399 50.6641C48.6292 50.6904 48.619 50.7146 48.6082 50.741C48.5954 50.7725 48.5816 50.8058 48.5687 50.8375C48.543 50.9 48.5169 50.9638 48.4906 51.0276C48.4584 51.1063 48.4264 51.1846 48.3934 51.2651C48.3829 51.2908 48.3721 51.3175 48.3615 51.3433C48.2799 51.5432 48.1961 51.7493 48.1104 51.961C48.097 51.9941 48.0837 52.0267 48.0702 52.0603C48.0279 52.1649 47.9847 52.2717 47.9414 52.3791C47.9245 52.4211 47.9075 52.463 47.8904 52.5055C47.8457 52.6164 47.8005 52.7286 47.7549 52.8425C47.7421 52.8742 47.7291 52.9067 47.7163 52.9386C47.5573 53.3345 47.3923 53.7474 47.2211 54.1776C47.2155 54.1919 47.2099 54.2058 47.2042 54.2202C47.1489 54.3591 47.0929 54.5005 47.0363 54.6429C47.0259 54.6695 47.0152 54.6961 47.0046 54.7228C46.9461 54.8701 46.8872 55.0189 46.8275 55.1701C46.8264 55.1729 46.8253 55.1757 46.8242 55.1784C46.7598 55.3413 46.695 55.5051 46.6291 55.6724L45.4757 55.1825C45.4716 55.1807 45.4676 55.179 45.4637 55.1773L42.7023 54.0042L49.3071 49.0679C49.2761 49.1398 49.2448 49.2133 49.2133 49.2883ZM52.064 45.6971C52.0639 45.6971 52.0636 45.6969 52.0634 45.6969C52.0625 45.6966 52.0614 45.6965 52.0604 45.696C51.3803 45.492 50.6549 45.5257 50.0034 45.7739C49.5314 45.2589 49.2032 44.4986 49.2032 43.7631V40.3494C52.7161 40.8672 55.4426 43.5227 56.1186 46.9203L52.064 45.6971ZM61.1612 62.2953C61.1612 64.3472 59.4919 66.0163 57.4402 66.0163C55.3885 66.0163 53.7192 64.3472 53.7192 62.2953C53.7192 60.2435 55.3885 58.5743 57.4402 58.5743C59.4919 58.5743 61.1612 60.2435 61.1612 62.2953Z" fill="white"/>
</g>
<defs>
<clipPath id="clip0">
<rect width="80.0479" height="80.0479" fill="white" transform="translate(0.343506 0.0119629)"/>
</clipPath>
</defs>
</svg>
