<svg width="85" height="84" viewBox="0 0 85 84" fill="none" xmlns="http://www.w3.org/2000/svg">
<g clip-path="url(#clip0)">
<path d="M27.5789 53.8828V61.4829C27.5789 73.6276 37.4582 83.6701 49.6029 83.6701C61.7476 83.6701 71.6269 73.6276 71.6269 61.4829V58.7881C77.2049 57.6512 81.4154 52.7085 81.4154 46.8002C81.4154 40.0538 75.9262 34.5646 69.1798 34.5646C62.4335 34.5646 56.9443 40.0538 56.9443 46.8002C56.9443 52.7085 61.1548 57.6512 66.7327 58.7881V61.4829C66.7327 70.9273 59.0473 78.7758 49.6029 78.7758C40.1585 78.7758 32.4731 70.9273 32.4731 61.4829V53.8859C42.4603 52.0538 53.986 39.6528 55.9812 27.8566C57.2896 20.1084 54.0568 13.9057 47.1558 10.8033V7.48319C47.1558 3.43501 43.8626 0.141846 39.8145 0.141846C35.7663 0.141846 32.4731 3.43501 32.4731 7.48319C32.4731 11.5314 35.7663 14.8245 39.8145 14.8245H44.1591C49.7899 16.9093 52.1564 21.1171 51.1539 27.0417C49.4357 37.2101 37.9838 49.2473 30.026 49.2473C21.1131 49.2473 8.72516 35.0935 8.65012 24.613C8.61667 19.9415 11.0643 16.5918 15.8272 14.8245H20.2375C24.2857 14.8245 27.5789 11.5314 27.5789 7.48319C27.5789 3.43501 24.2859 0.141846 20.2375 0.141846C16.1892 0.141846 12.8962 3.43501 12.8962 7.48319V10.776C7.00957 13.4121 3.74757 18.3516 3.76029 24.613C3.78525 36.8835 16.4985 51.8301 27.5789 53.8828ZM66.7327 44.3531H71.6269V49.2473H66.7327V44.3531Z" fill="white"/>
</g>
<defs>
<clipPath id="clip0">
<rect width="83.5282" height="83.5282" fill="white" transform="translate(0.823975 0.141846)"/>
</clipPath>
</defs>
</svg>
