<svg width="81" height="81" viewBox="0 0 81 81" fill="none" xmlns="http://www.w3.org/2000/svg">
<g clip-path="url(#clip0)">
<path d="M68.8209 16.4965H57.2318V10.3796C57.2318 5.96131 53.6373 2.36682 49.219 2.36682H32.217C27.7987 2.36682 24.2042 5.96131 24.2042 10.3796V16.4964H12.6151C6.04182 16.4965 0.694092 21.8442 0.694092 28.4176V65.784C0.694092 72.3573 6.04182 77.705 12.6151 77.705H68.8209C75.3942 77.705 80.742 72.3573 80.742 65.784V28.4176C80.742 21.8442 75.3942 16.4965 68.8209 16.4965ZM28.8945 10.3796C28.8945 8.54755 30.385 7.05713 32.217 7.05713H49.219C51.0511 7.05713 52.5415 8.54755 52.5415 10.3796V16.4964H28.8945V10.3796ZM5.3844 65.7838V28.4176C5.3844 25.2513 7.43093 22.5558 10.27 21.5794V72.6223C7.43093 71.6456 5.3844 68.9501 5.3844 65.7838ZM14.9603 73.0147V21.1868H66.4758V73.0147H14.9603ZM76.0517 65.7838C76.0517 68.9501 74.0051 71.6456 71.1661 72.6219V21.5792C74.0051 22.5558 76.0517 25.2513 76.0517 28.4176V65.7838Z" fill="white"/>
<path d="M54.8476 40.0456H47.7731V32.971C47.7731 31.6759 46.7231 30.6259 45.428 30.6259H36.0083C34.7131 30.6259 33.6631 31.6759 33.6631 32.971V40.0456H26.5886C25.2934 40.0456 24.2434 41.0956 24.2434 42.3907V51.8104C24.2434 53.1056 25.2934 54.1556 26.5886 54.1556H33.6631V61.2301C33.6631 62.5253 34.7131 63.5753 36.0083 63.5753H45.428C46.7231 63.5753 47.7731 62.5253 47.7731 61.2301V54.1556H54.8476C56.1428 54.1556 57.1928 53.1056 57.1928 51.8104V42.3907C57.1928 41.0956 56.1428 40.0456 54.8476 40.0456ZM52.5025 49.4653H45.428C44.1328 49.4653 43.0828 50.5153 43.0828 51.8104V58.885H38.3534V51.8104C38.3534 50.5153 37.3034 49.4653 36.0083 49.4653H28.9337V44.7359H36.0083C37.3034 44.7359 38.3534 43.6859 38.3534 42.3907V35.3162H43.0828V42.3907C43.0828 43.6859 44.1328 44.7359 45.428 44.7359H52.5025V49.4653Z" fill="white"/>
</g>
<defs>
<clipPath id="clip0">
<rect width="80.0479" height="80.0479" fill="white" transform="translate(0.694092 0.0119629)"/>
</clipPath>
</defs>
</svg>
