<svg width="11" height="11" viewBox="0 0 11 11" fill="none" xmlns="http://www.w3.org/2000/svg">
<path d="M7.91943 0H3.01842C1.35407 0 0 1.28365 0 2.86137V7.50728C0 9.08507 1.35407 10.3687 3.01842 10.3687H7.91943C9.58392 10.3687 10.938 9.08501 10.938 7.50728V2.86137C10.9381 1.28365 9.58392 0 7.91943 0ZM9.96758 7.50728C9.96758 8.5778 9.0488 9.4487 7.9195 9.4487H3.01842C1.88918 9.44876 0.970471 8.5778 0.970471 7.50728V2.86137C0.970471 1.79091 1.88918 0.919957 3.01842 0.919957H7.91943C9.04874 0.919957 9.96752 1.79091 9.96752 2.86137V7.50728H9.96758Z" fill="white"/>
<path d="M5.46881 2.5127C3.91471 2.5127 2.65039 3.7113 2.65039 5.18463C2.65039 6.6579 3.91471 7.85645 5.46881 7.85645C7.02291 7.85645 8.28723 6.6579 8.28723 5.18463C8.28723 3.7113 7.02291 2.5127 5.46881 2.5127ZM5.46881 6.93636C4.44989 6.93636 3.62085 6.15054 3.62085 5.18457C3.62085 4.21854 4.44982 3.43266 5.46881 3.43266C6.4878 3.43266 7.31677 4.21854 7.31677 5.18457C7.31677 6.15054 6.48773 6.93636 5.46881 6.93636Z" fill="white"/>
<path d="M8.40607 1.73242C8.21908 1.73242 8.03538 1.8042 7.90333 1.92996C7.77062 2.0551 7.69434 2.22932 7.69434 2.40723C7.69434 2.58458 7.77069 2.75874 7.90333 2.8845C8.03532 3.00964 8.21908 3.08203 8.40607 3.08203C8.59371 3.08203 8.77681 3.00964 8.90945 2.8845C9.0421 2.75874 9.1178 2.58452 9.1178 2.40723C9.1178 2.22932 9.0421 2.0551 8.90945 1.92996C8.77746 1.8042 8.59371 1.73242 8.40607 1.73242Z" fill="white"/>
</svg>
