<svg width="12" height="10" viewBox="0 0 12 10" fill="none" xmlns="http://www.w3.org/2000/svg">
<path d="M12 1.12228C11.5537 1.31261 11.0782 1.43877 10.5825 1.50002C11.0925 1.20396 11.4818 0.738709 11.6648 0.177932C11.1893 0.453581 10.6642 0.648285 10.1047 0.75694C9.65325 0.289504 9.00975 0 8.30775 0C6.94575 0 5.84925 1.07488 5.84925 2.3926C5.84925 2.5822 5.86575 2.76451 5.90625 2.93806C3.861 2.84108 2.05125 1.88797 0.8355 0.436079C0.62325 0.794131 0.49875 1.20396 0.49875 1.64514C0.49875 2.47355 0.9375 3.20788 1.5915 3.63302C1.19625 3.62573 0.8085 3.51416 0.48 3.33841C0.48 3.3457 0.48 3.35518 0.48 3.36466C0.48 4.52706 1.33275 5.49255 2.451 5.71497C2.25075 5.7682 2.0325 5.79373 1.806 5.79373C1.6485 5.79373 1.4895 5.78498 1.34025 5.75289C1.659 6.70016 2.5635 7.39657 3.639 7.41918C2.802 8.0558 1.73925 8.43937 0.58875 8.43937C0.387 8.43937 0.1935 8.43062 0 8.40655C1.08975 9.08984 2.38125 9.47998 3.774 9.47998C8.301 9.47998 10.776 5.83383 10.776 2.67335C10.776 2.56762 10.7722 2.46552 10.767 2.36416C11.2552 2.02726 11.6655 1.60649 12 1.12228Z" fill="white"/>
</svg>
