<svg width="13" height="10" viewBox="0 0 13 10" fill="none" xmlns="http://www.w3.org/2000/svg">
<path d="M8.3584 4.26102L5.39922 2.50789C5.28517 2.44033 5.14145 2.43676 5.02385 2.49854C4.90622 2.56032 4.83325 2.67775 4.83325 2.80522V6.31148C4.83325 6.43895 4.90622 6.55636 5.02385 6.61816C5.07973 6.64752 5.14148 6.66211 5.20315 6.66211C5.27128 6.66211 5.33932 6.64427 5.3992 6.60881L8.35838 4.85568C8.46653 4.79161 8.53223 4.67925 8.53223 4.55835C8.53223 4.43745 8.46656 4.32509 8.3584 4.26102ZM5.57307 5.67886V3.43782L7.46443 4.55835L5.57307 5.67886Z" fill="white"/>
<path d="M10.7762 0H1.84945C0.829665 0 0 0.786491 0 1.75321V7.36349C0 8.33021 0.829665 9.1167 1.84945 9.1167H10.7762C11.7959 9.1167 12.6256 8.33021 12.6256 7.36349V1.75321C12.6256 0.786491 11.7959 0 10.7762 0ZM11.8858 7.36349C11.8858 7.94352 11.388 8.41541 10.7762 8.41541H1.84945C1.23758 8.41541 0.739782 7.94352 0.739782 7.36349V1.75321C0.739782 1.17318 1.23758 0.701285 1.84945 0.701285H10.7762C11.388 0.701285 11.8858 1.17318 11.8858 1.75321V7.36349Z" fill="white"/>
</svg>
